<?xml version="1.0" encoding="UTF-8"?>
<svg width="117.7" height="102.02" version="1.1" viewBox="0 0 117.7 102.02" xmlns="http://www.w3.org/2000/svg">
 <g transform="rotate(-30 -1731.1 512.92)" fill="#1a202c">
  <path d="m40.812 968.36c-0.45443 0.0411-0.89264 0.24336-1.2188 0.56248l-10.438 10.437h-10.156c-5.0129 0-9 3.6537-9 7.9997v40.998c0 4.3459 3.9871 7.9996 9 7.9997 20.667 7e-4 41.333 3e-4 62 0 5.0129-1e-4 9-3.6538 9-7.9997v-20.999c0.01494-1.0566-0.94327-2.0284-2-2.0284s-2.0149 0.9718-2 2.0284v20.999c0 1.7626-1.9308 3.9997-5 3.9998-20.667 3e-4 -41.333 7e-4 -62 0-3.0692-1e-4 -5-2.2372-5-3.9998v-40.998c0-1.7628 1.9309-3.9998 5-3.9998h11c0.52204-4e-3 1.0392-0.22253 1.4062-0.59373l10.406-10.406h16.375l10.406 10.406c0.36707 0.3712 0.88421 0.58954 1.4062 0.59373h11c3.0691 0 5 2.237 5 3.9998v12c-0.01494 1.0566 0.94327 2.0284 2 2.0284s2.0149-0.9718 2-2.0284v-12c0-4.346-3.9871-7.9997-9-7.9997h-10.156l-10.438-10.437c-0.37215-0.35998-0.88849-0.56651-1.4062-0.56248h-18c-0.06245-3e-3 -0.12505-3e-3 -0.1875 0zm9.1875 14.031c-12.679 0-22.969 10.289-22.969 22.968 0 12.678 10.29 22.968 22.969 22.968s22.969-10.29 22.969-22.968c0-12.678-10.29-22.968-22.969-22.968zm0 3.9374c10.517 0 19.031 8.5138 19.031 19.03 0 10.517-8.5141 19.031-19.031 19.031s-19.031-8.5138-19.031-19.031c0-10.517 8.5141-19.03 19.031-19.03zm-29 1.0312c-1.6332 0-3 1.3668-3 2.9999 0 1.6331 1.3668 2.9999 3 2.9999s3-1.3668 3-2.9999c0-1.6331-1.3668-2.9999-3-2.9999zm29 3.0311c-8.2606 0-14.969 6.7079-14.969 14.968 0 8.2602 6.7082 14.968 14.969 14.968 2.0398 0 3.9777-0.3563 5.75-1.0937 0.97357-0.3927 1.5021-1.6357 1.1094-2.6093-0.3927-0.9735-1.6358-1.502-2.6094-1.1093-1.3009 0.5413-2.7535 0.875-4.25 0.875-6.0988 0-11.031-4.9323-11.031-11.031 0-6.0986 4.9324-11.031 11.031-11.031s11.031 4.9322 11.031 11.031c0 2.1934-0.67515 4.2182-1.75 5.9061-0.5645 0.8999-0.25931 2.2323 0.64062 2.7967 0.89994 0.5645 2.2324 0.2593 2.7969-0.6406 1.4915-2.3421 2.25-5.1239 2.25-8.0622 0-8.2602-6.7082-14.968-14.969-14.968z" overflow="visible" style="text-indent:0;text-transform:none"/>
 </g>
</svg>
