<svg version="1.1"
      xmlns="http://www.w3.org/2000/svg"
      xmlns:xlink="http://www.w3.org/1999/xlink"  id="snapshot-06311" width="180" height="100" viewBox="0 0 180 100"><desc>This image was made on Patterninja.com</desc><defs>
<!-- image 49117 -->
<g id="transformed-49117" data-image="49117" transform="translate(17.993151006224082, -9.785890134647346) rotate(0, 73.00684899377592, 62.785890134647346)"><g><svg version="1.1" width="146.01369798755184px" height="125.57178026929469px" viewBox="0 0 146.01369798755184 125.57178026929469"><g id="original-49117"><svg xmlns="http://www.w3.org/2000/svg" viewBox="0 0 117.7 102.02" xmlns:xlink="http://www.w3.org/1999/xlink" version="1.1" preserveAspectRatio="xMidYMid meet">
  <path d="M31.14 21.387a2.019 2.019 0 0 0-.773 1.096l-3.822 14.258-8.795 5.078c-4.341 2.506-5.967 7.664-3.794 11.428l20.499 35.505c2.173 3.764 7.452 4.934 11.794 2.428l53.693-31c4.342-2.507 5.968-7.664 3.795-11.428l-10.5-18.186c-.515-.922-1.83-1.285-2.746-.756s-1.259 1.849-.718 2.756l10.5 18.186c.881 1.527.327 4.43-2.33 5.964l-53.694 31c-2.658 1.535-5.449.563-6.33-.964l-20.5-35.505c-.88-1.527-.327-4.43 2.331-5.964l9.526-5.5c.45-.265.789-.712.921-1.217l3.81-14.215 14.18-8.188 14.215 3.81c.504.137 1.06.068 1.515-.19l9.526-5.5c2.658-1.534 5.449-.563 6.33.964l6 10.392c.516.923 1.831 1.285 2.746.757s1.26-1.849.718-2.757l-6-10.392c-2.173-3.764-7.453-4.934-11.794-2.428l-8.795 5.078-14.258-3.82a2.024 2.024 0 0 0-1.5.216l-15.588 9c-.055.029-.11.06-.162.094zm14.973 7.557c-10.98 6.34-14.747 20.395-8.408 31.375 6.34 10.98 20.396 14.746 31.376 8.407S83.828 48.33 77.489 37.35c-6.34-10.979-20.396-14.745-31.376-8.406zm1.969 3.41c9.108-5.259 20.738-2.142 25.996 6.965 5.258 9.108 2.142 20.738-6.966 25.997s-20.738 2.142-25.997-6.966c-5.258-9.108-2.141-20.738 6.967-25.996zm-24.6 15.393c-1.414.817-1.914 2.684-1.098 4.098.817 1.414 2.684 1.915 4.098 1.098s1.915-2.684 1.099-4.098c-.817-1.414-2.684-1.915-4.099-1.098zm26.63-11.875c-7.153 4.13-9.609 13.294-5.479 20.447 4.13 7.154 13.294 9.609 20.448 5.478 1.766-1.02 3.266-2.297 4.433-3.822.646-.827.483-2.167-.344-2.814-.827-.647-2.168-.483-2.815.344-.856 1.119-1.947 2.134-3.243 2.883a11.023 11.023 0 0 1-15.069-4.038c-3.049-5.282-1.243-12.02 4.038-15.069s12.02-1.244 15.069 4.038c1.096 1.9 1.524 3.99 1.437 5.99-.039 1.061.892 2.063 1.953 2.101 1.062.04 2.063-.891 2.102-1.953.12-2.774-.613-5.562-2.082-8.107-4.13-7.153-13.294-9.608-20.448-5.478z" overflow="visible" style="text-indent:0;text-transform:none" fill="rgba(26, 32, 44, 1)" stroke="none"/>
</svg>
</g></svg></g></g>
<!-- /image 49117 -->

<!-- image 45394 -->
<g id="transformed-45394" data-image="45394" transform="translate(-72.00684899377592, -59.785890134647346) rotate(0, 73.00684899377592, 62.785890134647346)"><g><svg version="1.1" width="146.01369798755184px" height="125.57178026929469px" viewBox="0 0 146.01369798755184 125.57178026929469"><g id="original-45394"><svg xmlns="http://www.w3.org/2000/svg" viewBox="0 0 117.7 102.02" xmlns:xlink="http://www.w3.org/1999/xlink" version="1.1" preserveAspectRatio="xMidYMid meet">
  <path d="M31.14 21.387a2.019 2.019 0 0 0-.773 1.096l-3.822 14.258-8.795 5.078c-4.341 2.506-5.967 7.664-3.794 11.428l20.499 35.505c2.173 3.764 7.452 4.934 11.794 2.428l53.693-31c4.342-2.507 5.968-7.664 3.795-11.428l-10.5-18.186c-.515-.922-1.83-1.285-2.746-.756s-1.259 1.849-.718 2.756l10.5 18.186c.881 1.527.327 4.43-2.33 5.964l-53.694 31c-2.658 1.535-5.449.563-6.33-.964l-20.5-35.505c-.88-1.527-.327-4.43 2.331-5.964l9.526-5.5c.45-.265.789-.712.921-1.217l3.81-14.215 14.18-8.188 14.215 3.81c.504.137 1.06.068 1.515-.19l9.526-5.5c2.658-1.534 5.449-.563 6.33.964l6 10.392c.516.923 1.831 1.285 2.746.757s1.26-1.849.718-2.757l-6-10.392c-2.173-3.764-7.453-4.934-11.794-2.428l-8.795 5.078-14.258-3.82a2.024 2.024 0 0 0-1.5.216l-15.588 9c-.055.029-.11.06-.162.094zm14.973 7.557c-10.98 6.34-14.747 20.395-8.408 31.375 6.34 10.98 20.396 14.746 31.376 8.407S83.828 48.33 77.489 37.35c-6.34-10.979-20.396-14.745-31.376-8.406zm1.969 3.41c9.108-5.259 20.738-2.142 25.996 6.965 5.258 9.108 2.142 20.738-6.966 25.997s-20.738 2.142-25.997-6.966c-5.258-9.108-2.141-20.738 6.967-25.996zm-24.6 15.393c-1.414.817-1.914 2.684-1.098 4.098.817 1.414 2.684 1.915 4.098 1.098s1.915-2.684 1.099-4.098c-.817-1.414-2.684-1.915-4.099-1.098zm26.63-11.875c-7.153 4.13-9.609 13.294-5.479 20.447 4.13 7.154 13.294 9.609 20.448 5.478 1.766-1.02 3.266-2.297 4.433-3.822.646-.827.483-2.167-.344-2.814-.827-.647-2.168-.483-2.815.344-.856 1.119-1.947 2.134-3.243 2.883a11.023 11.023 0 0 1-15.069-4.038c-3.049-5.282-1.243-12.02 4.038-15.069s12.02-1.244 15.069 4.038c1.096 1.9 1.524 3.99 1.437 5.99-.039 1.061.892 2.063 1.953 2.101 1.062.04 2.063-.891 2.102-1.953.12-2.774-.613-5.562-2.082-8.107-4.13-7.153-13.294-9.608-20.448-5.478z" overflow="visible" style="text-indent:0;text-transform:none" fill="rgba(26, 32, 44, 1)" stroke="none"/>
</svg>
</g></svg></g></g>
<!-- /image 45394 -->
</defs><rect x="0" y="0" width="180" height="100" fill="rgba(255, 255, 255, 0)"></rect><use xlink:href="#transformed-49117" transform="translate(-180, -100)"></use><use xlink:href="#transformed-49117" transform="translate(0, -100)"></use><use xlink:href="#transformed-49117" transform="translate(180, -100)"></use><use xlink:href="#transformed-49117" transform="translate(-180, 0)"></use><use xlink:href="#transformed-49117" transform="translate(0, 0)"></use><use xlink:href="#transformed-49117" transform="translate(180, 0)"></use><use xlink:href="#transformed-49117" transform="translate(-180, 100)"></use><use xlink:href="#transformed-49117" transform="translate(0, 100)"></use><use xlink:href="#transformed-49117" transform="translate(180, 100)"></use><use xlink:href="#transformed-45394" transform="translate(-180, -100)"></use><use xlink:href="#transformed-45394" transform="translate(0, -100)"></use><use xlink:href="#transformed-45394" transform="translate(180, -100)"></use><use xlink:href="#transformed-45394" transform="translate(-180, 0)"></use><use xlink:href="#transformed-45394" transform="translate(0, 0)"></use><use xlink:href="#transformed-45394" transform="translate(180, 0)"></use><use xlink:href="#transformed-45394" transform="translate(-180, 100)"></use><use xlink:href="#transformed-45394" transform="translate(0, 100)"></use><use xlink:href="#transformed-45394" transform="translate(180, 100)"></use></svg>