<svg xmlns="http://www.w3.org/2000/svg" xmlns:xlink="http://www.w3.org/1999/xlink" xmlns:fi="http://pattern.flaticon.com/" x="0" y="0" width="700" height="350" viewBox="0 0 700 350"><rect x="0px" y="0px" width="100%" height="100%" opacity="0" fill="#009688"/><defs><g transform="matrix(0.45391947337627303 -0.1299957162576422 0.1299957162576422 0.45391947337627303 168.94987879505615 23.197577027262668)" fill="#000000" id="L1_0"><path d="m279.741 157.126c-74.99 0-136 61.009-136 136s61.01 136 136 136 136-61.01 136-136-61.01-136-136-136zm0 260a124 124 0 1 1 124-124 124.14 124.14 0 0 1 -124 124z"/><path d="m279.741 182.289a110.838 110.838 0 1 0 110.837 110.837 110.963 110.963 0 0 0 -110.837-110.837zm0 209.675a98.838 98.838 0 1 1 98.837-98.838 98.951 98.951 0 0 1 -98.837 98.838z"/><path d="m131.7 183.542h-74.735a8.009 8.009 0 0 0 -8 8v28a8.009 8.009 0 0 0 8 8h74.735a8.009 8.009 0 0 0 8-8v-28a8.009 8.009 0 0 0 -8-8zm-70.734 12h36.785v20h-36.786zm66.734 20h-17.949v-20h17.949z"/><path d="m456.965 130.35h-43.98a23.9 23.9 0 0 1 -22.9-16.808l-2.8-8.915a35.854 35.854 0 0 0 -34.346-25.21h-67.954a35.854 35.854 0 0 0 -34.345 25.21l-2.8 8.915a23.9 23.9 0 0 1 -22.9 16.808h-64.076v-10.234a22.025 22.025 0 0 0 -22-22h-48a22.025 22.025 0 0 0 -22 22v10.234h-31.9a36.04 36.04 0 0 0 -36 36v260a36.041 36.041 0 0 0 36 36h420a36.041 36.041 0 0 0 36-36v-260a36.041 36.041 0 0 0 -35.999-36zm-376.1-10.234a10.012 10.012 0 0 1 10-10h48a10.011 10.011 0 0 1 10 10v10.234h-68zm400.1 306.234a24.028 24.028 0 0 1 -24 24h-420a24.027 24.027 0 0 1 -24-24v-260a24.027 24.027 0 0 1 24-24h187.978a35.855 35.855 0 0 0 34.346-25.212l2.8-8.914a23.9 23.9 0 0 1 22.9-16.807h67.958a23.9 23.9 0 0 1 22.9 16.806l2.8 8.916a35.855 35.855 0 0 0 34.345 25.211h43.98a24.027 24.027 0 0 1 24 24z"/><path d="m347.733 274.142-56.307 10.665 28.5-49.724a6 6 0 0 0 -2.344-8.258l-3.007-1.632c-.043-.023-.086-.046-.13-.068a75.521 75.521 0 0 0 -34.7-8.329 76.262 76.262 0 1 0 75.171 63.017l-.166-.883a6 6 0 0 0 -7.013-4.788zm-67.992 83.314a64.33 64.33 0 1 1 0-128.66 63.622 63.622 0 0 1 26.655 5.762l-31.86 55.585a6 6 0 0 0 6.321 8.878l62.935-11.921c.186 2 .279 4.013.279 6.024a64.4 64.4 0 0 1 -64.33 64.332z"/><path d="m284.215 142.494h72.01a6.5 6.5 0 0 0 6.5-6.5v-23.381a6.5 6.5 0 0 0 -6.5-6.5h-72.01a6.5 6.5 0 0 0 -6.5 6.5v23.387a6.5 6.5 0 0 0 6.5 6.494zm5.5-24.378h61v12.378h-61z"/></g><g transform="matrix(0.16076400532101875 0.11716698057416233 -0.11716698057416233 0.16076400532101875 219.192599604479 239.86279304508346)" fill="#000000" id="L1_1"><path d="m256 10a246 246 0 0 0 -173.948 419.948 246 246 0 1 0 347.9-347.9 244.386 244.386 0 0 0 -173.952-72.048zm165.463 411.463a234 234 0 0 1 -330.926-330.926 234 234 0 0 1 330.926 330.926z"/><path d="m256 38.637a217.363 217.363 0 0 0 -153.7 371.063 217.363 217.363 0 0 0 307.4-307.4 215.941 215.941 0 0 0 -153.7-63.663zm191.379 142.879-156.327 5.591h-59.87l86.571-126.977a206.366 206.366 0 0 1 129.626 121.386zm-158.532 131.377h-65.694l-32.847-56.893 32.847-56.893h65.694l32.847 56.893zm16.722-256.193-90.95 133.4a8.054 8.054 0 0 0 -.7 1.01l-29.543 51.16-59.43-144.258a205.142 205.142 0 0 1 180.623-41.312zm-190.134 49.73 62.773 152.37c.061.161.126.32.2.478.109.241.218.482.351.714l30.541 52.901h-150.64a205.2 205.2 0 0 1 56.775-206.464zm-52.9 218.464h214.8l-114.662 114.011a206.5 206.5 0 0 1 -100.135-114.012zm111.677 119.461 121.81-121.116a7.989 7.989 0 0 0 2.063-2.346l30.068-52.079 67.957 137.18a205.025 205.025 0 0 1 -221.9 38.361zm230.876-47.271-71.33-143.984a7.872 7.872 0 0 0 -.516-1.1l-30.77-53.294 149.114-5.333a205.124 205.124 0 0 1 -46.5 203.711z"/></g><g transform="matrix(0.1380695104598999 0 0 0.1380695104598999 95.75861537456512 -5.2413846254348755)" fill="#000000" id="L1_2"><path d="m16 125.186a6 6 0 0 0 6-6v-83.186a14.015 14.015 0 0 1 14-14h90.123a6 6 0 0 0 0-12h-90.123a26.029 26.029 0 0 0 -26 26v83.186a6 6 0 0 0 6 6z"/><path d="m496 382.025a6 6 0 0 0 -6 6v87.975a14.015 14.015 0 0 1 -14 14h-83.558a6 6 0 0 0 0 12h83.558a26.029 26.029 0 0 0 26-26v-87.975a6 6 0 0 0 -6-6z"/><path d="m394.122 22h81.878a14.015 14.015 0 0 1 14 14v78.985a6 6 0 1 0 12 0v-78.985a26.029 26.029 0 0 0 -26-26h-81.878a6 6 0 0 0 0 12z"/><path d="m36 502h77.521a6 6 0 0 0 0-12h-77.521a14.015 14.015 0 0 1 -14-14v-77.053a6 6 0 0 0 -12 0v77.053a26.029 26.029 0 0 0 26 26z"/><path d="m81.665 223.469a8.009 8.009 0 0 0 -8 8v51.062a6.4 6.4 0 0 0 2.833 5.462 6.327 6.327 0 0 0 5.949.531l140.728-1.292v143.1a8.009 8.009 0 0 0 8 8h49.65a8.009 8.009 0 0 0 8-8v-141.8h141.51a8.009 8.009 0 0 0 8-8v-49.063a8.009 8.009 0 0 0 -8-8h-141.51v-141.804a8.009 8.009 0 0 0 -8-8h-49.65a8.024 8.024 0 0 0 -8 8.068l1.617 141.736zm146.514 12a8.041 8.041 0 0 0 6.387-3.182l.649-.861a8.044 8.044 0 0 0 1.613-4.909l-1.607-140.852h41.6v141.269a7.991 7.991 0 0 0 2.815 6.092l.631.537a8.008 8.008 0 0 0 5.183 1.906h140.885v41.062h-141.51a8.009 8.009 0 0 0 -8 8v141.8h-41.65v-143.231a7.9 7.9 0 0 0 -7.974-7.9l-141.536 1.3v-41.031z"/></g><path d="M498.963,250.917H446.4a189.753,189.753,0,0,0-51.17-124.742l36.815-36.816a6,6,0,1,0-8.484-8.485l-36.784,36.783A189.775,189.775,0,0,0,262,65.637V13.954a6,6,0,1,0-12,0V65.637a189.78,189.78,0,0,0-124.776,52.02L88.441,80.874a6,6,0,0,0-8.484,8.485l36.815,36.816A189.753,189.753,0,0,0,65.6,250.917H13.037a6,6,0,0,0,0,12H65.672a189.785,189.785,0,0,0,51.985,123.859l-37.7,37.7a6,6,0,1,0,8.484,8.485l37.734-37.733A189.754,189.754,0,0,0,250,446.363V495.7a6,6,0,0,0,12,0V446.363a189.754,189.754,0,0,0,123.825-51.135l37.734,37.733a6,6,0,1,0,8.484-8.485l-37.7-37.7a189.785,189.785,0,0,0,51.985-123.859h52.635a6,6,0,1,0,0-12ZM376.95,387.1,262,388.236V360.55H400.544A179.993,179.993,0,0,1,376.95,387.1Zm22.4-237.294H262V122.062H373.807A179.945,179.945,0,0,1,399.346,149.81ZM262,201.558H425.964a176.946,176.946,0,0,1,6.506,27.748H262Zm0-12V161.81H407.519a178.039,178.039,0,0,1,14.112,27.748Zm0,158.992V320.8H422.286a177.974,177.974,0,0,1-13.742,27.748Zm0-39.748V281.054H432.7a177.149,177.149,0,0,1-6.207,27.748Zm0-39.748V241.306H433.858c.4,4.847.609,9.746.609,14.694q0,6.585-.48,13.054Zm96.607-158.992H262V77.645A177.414,177.414,0,0,1,358.607,110.062ZM77.533,256c0-96.4,76.828-175.179,172.467-178.355v356.71C154.361,431.179,77.533,352.4,77.533,256ZM262,400.236l100.325-.988A177.483,177.483,0,0,1,262,434.355Z" transform="matrix(0.14546836912631989 0 0 0.14546836912631989 117.94444191166332 106.990582320312)" fill="#000000" id="L1_3"/><path d="m482.411 244.033-39.018-14.5.564-41.856q.043-1.7.045-3.4v-.047c0-.027 0-.054 0-.081a27.55 27.55 0 0 0 -27.402-27.631h-54.76c-16.628-34.881-56.729-69.018-103.94-69.018a112.408 112.408 0 0 0 -64.811 20.438 114.587 114.587 0 0 0 -39.573 48.58h-58.67a27.549 27.549 0 0 0 -27.407 27.629v.087.066q0 1.815.055 3.617l.631 41.792-38.536 14.324a30.3 30.3 0 0 0 -19.589 28.333v105.325a30.029 30.029 0 0 0 23.1 29.4l47.833 11.329a27.129 27.129 0 0 0 17.124 6.08h315.674a27.163 27.163 0 0 0 17.046-6.011l48.125-11.4a30.029 30.029 0 0 0 23.1-29.4v-105.323a30.3 30.3 0 0 0 -19.591-28.333zm-4.182 11.248a18.251 18.251 0 0 1 11.771 17.085v54.634h-47.92l1.141-84.735zm-397.929-14.007c21.142 44.385 66.115 75.094 118.058 75.094h41.264v7.092h-3.6a16.554 16.554 0 0 0 -16.48 16.589v15.881a31.611 31.611 0 0 0 1.962 10.987l-139.318-.441zm190.01 96.055a8.346 8.346 0 0 1 -8.336 8.336h-2.014a8.345 8.345 0 0 1 -8.336-8.336v-43.949a8.345 8.345 0 0 1 8.336-8.336h2.016a8.346 8.346 0 0 1 8.336 8.336zm-38.764 18.6v-15.88a4.541 4.541 0 0 1 4.48-4.589h3.6v1.869a20.359 20.359 0 0 0 20.336 20.336h2.016a20.36 20.36 0 0 0 20.336-20.336v-1.869h2.417a4.541 4.541 0 0 1 4.479 4.589v15.881a19.414 19.414 0 0 1 -19.259 19.522h-19.144a19.414 19.414 0 0 1 -19.259-19.522zm53.181-32.47h-2.417v-7.092h30.771c52.023 0 97.053-30.805 118.154-75.3l-1.705 126.565-130.3-.681a31.589 31.589 0 0 0 1.976-11.021v-15.881a16.553 16.553 0 0 0 -16.477-16.589zm-84.75-205.692a100.465 100.465 0 0 1 57.923-18.267c19.5 0 39.229 6.792 57.049 19.643a114.92 114.92 0 0 1 33.405 37.375h-23.3a77.743 77.743 0 0 0 -135.353 0h-22.951a102.569 102.569 0 0 1 33.227-38.751zm110.829 38.751h-106.864a65.684 65.684 0 0 1 106.864 0zm-215.96 12h96.954a5.758 5.758 0 0 0 2.713 0h222.087a15.537 15.537 0 0 1 15.4 15.627l-.044 3.22c-1.693 64.808-54.368 117-118.877 117h-30.767v-10.985a20.36 20.36 0 0 0 -20.336-20.336h-2.016a20.359 20.359 0 0 0 -20.336 20.336v10.988h-41.264c-64.428 0-117.049-52.065-118.868-116.761l-.052-3.466a15.536 15.536 0 0 1 15.406-15.623zm-61.075 86.763 34.548-12.841 1.281 84.56h-47.6v-54.634a18.251 18.251 0 0 1 11.771-17.085zm-11.771 122.41v-38.691h47.777l.48 31.817a5.93 5.93 0 0 0 .052 3.456l.341 22.594a27.746 27.746 0 0 0 .892 6.992l-35.679-8.452a18.073 18.073 0 0 1 -13.863-17.716zm76.057 34.809a15.559 15.559 0 0 1 -15.408-15.72l-.276-18.3 147.1.467a31 31 0 0 0 21.33 8.509h19.142a31 31 0 0 0 21.364-8.542l138.058.721-.232 17.24a15.537 15.537 0 0 1 -15.404 15.625zm378.08-17.089-35.891 8.5a27.534 27.534 0 0 0 .892-6.962l.287-21.359a5.963 5.963 0 0 0 .05-3.714l.443-32.876h48.082v38.687a18.073 18.073 0 0 1 -13.863 17.724z" transform="matrix(0.1765585372195123 0.08282993314006581 -0.08282993314006581 0.1765585372195123 82.75649313617967 180.87104894606)" fill="#000000" id="L1_4"/><g transform="matrix(0.11832065640891375 0.030988744164908946 -0.030988744164908946 0.11832065640891375 326.4937525267548 261.9374029559705)" fill="#000000" id="L1_5"><path d="m256 86.16c-93.65 0-169.84 76.19-169.84 169.84s76.19 169.84 169.84 169.84 169.84-76.19 169.84-169.84-76.19-169.84-169.84-169.84zm49.765 167.23a49.614 49.614 0 0 0 -12.393-30.3l113.9-12.159a157.665 157.665 0 0 1 -15.572 125.602zm-49.765 40.444a37.834 37.834 0 1 1 37.834-37.834 37.878 37.878 0 0 1 -37.834 37.834zm147.294-94.551-123.143 13.146a49.484 49.484 0 0 0 -22.359-6.218l59.064-95.842a158.725 158.725 0 0 1 86.438 88.914zm-97.895-93.2-62.815 101.932a50.043 50.043 0 0 0 -31.092 25.611l-35.363-113.715a157.663 157.663 0 0 1 129.271-13.825zm-139.742 20.565 40.534 130.344a49.7 49.7 0 0 0 1.738 12.121l-109.458-22.877a157.844 157.844 0 0 1 67.186-119.588zm-67.466 131.789 115.709 24.184a50.079 50.079 0 0 0 25.651 20.412l-98.19 61.351a157.267 157.267 0 0 1 -43.17-105.947zm52 114.583 107.6-67.232a49.481 49.481 0 0 0 22.534-6.319l-9 113.624c-5.045.489-10.157.747-15.329.747a157.219 157.219 0 0 1 -105.806-40.82zm133.309 38.417 9.686-122.307a49.771 49.771 0 0 0 11.035-20.538l80.822 78.2a158.106 158.106 0 0 1 -101.543 64.645z"/><path d="m36 10a26.029 26.029 0 0 0 -26 26v83.186a6 6 0 0 0 12 0v-83.186a14.015 14.015 0 0 1 14-14h90.123a6 6 0 0 0 0-12z"/><path d="m496 382.025a6 6 0 0 0 -6 6v87.975a14.015 14.015 0 0 1 -14 14h-83.558a6 6 0 0 0 0 12h83.558a26.029 26.029 0 0 0 26-26v-87.975a6 6 0 0 0 -6-6z"/><path d="m476 10h-81.878a6 6 0 0 0 0 12h81.878a14.015 14.015 0 0 1 14 14v78.985a6 6 0 1 0 12 0v-78.985a26.029 26.029 0 0 0 -26-26z"/><path d="m113.521 490h-77.521a14.015 14.015 0 0 1 -14-14v-77.053a6 6 0 0 0 -12 0v77.053a26.029 26.029 0 0 0 26 26h77.521a6 6 0 0 0 0-12z"/></g></defs><g fi:class="KUsePattern"><pattern id="pattern_L1_0" width="350" height="350" patternUnits="userSpaceOnUse"><use xlink:href="#L1_0" x="-350" y="-350"/><use xlink:href="#L1_0" x="0" y="-350"/><use xlink:href="#L1_0" x="350" y="-350"/><use xlink:href="#L1_0" x="-350" y="0"/><use xlink:href="#L1_0" x="0" y="0"/><use xlink:href="#L1_0" x="350" y="0"/><use xlink:href="#L1_0" x="-350" y="350"/><use xlink:href="#L1_0" x="0" y="350"/><use xlink:href="#L1_0" x="350" y="350"/></pattern><rect x="0" y="0" width="100%" height="100%" fill="url(#pattern_L1_0)"/></g><g fi:class="KUsePattern"><pattern id="pattern_L1_1" width="350" height="350" patternUnits="userSpaceOnUse"><use xlink:href="#L1_1" x="-350" y="-350"/><use xlink:href="#L1_1" x="0" y="-350"/><use xlink:href="#L1_1" x="350" y="-350"/><use xlink:href="#L1_1" x="-350" y="0"/><use xlink:href="#L1_1" x="0" y="0"/><use xlink:href="#L1_1" x="350" y="0"/><use xlink:href="#L1_1" x="-350" y="350"/><use xlink:href="#L1_1" x="0" y="350"/><use xlink:href="#L1_1" x="350" y="350"/></pattern><rect x="0" y="0" width="100%" height="100%" fill="url(#pattern_L1_1)"/></g><g fi:class="KUsePattern"><pattern id="pattern_L1_2" width="350" height="350" patternUnits="userSpaceOnUse"><use xlink:href="#L1_2" x="-350" y="-350"/><use xlink:href="#L1_2" x="0" y="-350"/><use xlink:href="#L1_2" x="350" y="-350"/><use xlink:href="#L1_2" x="-350" y="0"/><use xlink:href="#L1_2" x="0" y="0"/><use xlink:href="#L1_2" x="350" y="0"/><use xlink:href="#L1_2" x="-350" y="350"/><use xlink:href="#L1_2" x="0" y="350"/><use xlink:href="#L1_2" x="350" y="350"/></pattern><rect x="0" y="0" width="100%" height="100%" fill="url(#pattern_L1_2)"/></g><g fi:class="KUsePattern"><pattern id="pattern_L1_3" width="350" height="350" patternUnits="userSpaceOnUse"><use xlink:href="#L1_3" x="-350" y="-350"/><use xlink:href="#L1_3" x="0" y="-350"/><use xlink:href="#L1_3" x="350" y="-350"/><use xlink:href="#L1_3" x="-350" y="0"/><use xlink:href="#L1_3" x="0" y="0"/><use xlink:href="#L1_3" x="350" y="0"/><use xlink:href="#L1_3" x="-350" y="350"/><use xlink:href="#L1_3" x="0" y="350"/><use xlink:href="#L1_3" x="350" y="350"/></pattern><rect x="0" y="0" width="100%" height="100%" fill="url(#pattern_L1_3)"/></g><g fi:class="KUsePattern"><pattern id="pattern_L1_4" width="350" height="350" patternUnits="userSpaceOnUse"><use xlink:href="#L1_4" x="-350" y="-350"/><use xlink:href="#L1_4" x="0" y="-350"/><use xlink:href="#L1_4" x="350" y="-350"/><use xlink:href="#L1_4" x="-350" y="0"/><use xlink:href="#L1_4" x="0" y="0"/><use xlink:href="#L1_4" x="350" y="0"/><use xlink:href="#L1_4" x="-350" y="350"/><use xlink:href="#L1_4" x="0" y="350"/><use xlink:href="#L1_4" x="350" y="350"/></pattern><rect x="0" y="0" width="100%" height="100%" fill="url(#pattern_L1_4)"/></g><g fi:class="KUsePattern"><pattern id="pattern_L1_5" width="350" height="350" patternUnits="userSpaceOnUse"><use xlink:href="#L1_5" x="-350" y="-350"/><use xlink:href="#L1_5" x="0" y="-350"/><use xlink:href="#L1_5" x="350" y="-350"/><use xlink:href="#L1_5" x="-350" y="0"/><use xlink:href="#L1_5" x="0" y="0"/><use xlink:href="#L1_5" x="350" y="0"/><use xlink:href="#L1_5" x="-350" y="350"/><use xlink:href="#L1_5" x="0" y="350"/><use xlink:href="#L1_5" x="350" y="350"/></pattern><rect x="0" y="0" width="100%" height="100%" fill="url(#pattern_L1_5)"/></g></svg>